<svg
        xmlns="http://www.w3.org/2000/svg"
        width="40"
        height="40"
        viewBox="0 0 512 512">
  <path
          d="m 476,158 c 2,-10 4,-20 4,-30 C 480,57 423,0 352,0 302,0 260,29 238,70 c -9,-4 -19,-6 -30,-6 -43,0 -78,34 -80,77 -38,17 -64,48 -64,83 v 2 c 21,-21 49,-34 80,-34 5,0 11,0 16,1 30,-41 77,-65 128,-65 88,0 160,72 160,160 0,6 0,12 -1,18 l 1,1 c 38,-17 64,-48 64,-83 0,-26 -14,-49 -36,-66 z"
          id="path819"
          style="fill:#294966;"/>
  <path
          d="m 412,350 c 2,-10 4,-20 4,-30 0,-71 -57,-128 -128,-128 -50,0 -92,29 -114,70 -9,-4 -19,-6 -30,-6 -43,0 -78,34 -80,77 -38,17 -64,48 -64,83 0,53 58,96 128,96 h 192 c 70,0 128,-43 128,-96 0,-26 -14,-49 -36,-66 z"
          id="path2"
          style="fill:#4277a6;"/>
</svg>
