<svg
        xmlns="http://www.w3.org/2000/svg"
        width="40"
        height="40"
        viewBox="0 0 512 512">
  <path
          d="m 444,158 c 2,-10 4,-20 4,-30 C 448,57 391,0 320,0 270,0 228,29 206,70 c -9,-4 -19,-6 -30,-6 -43,0 -78,34 -80,77 -38,17 -64,48 -64,83 0,53 58,96 128,96 h 192 c 70,0 128,-43 128,-96 0,-26 -14,-49 -36,-66 z"
          id="path841"
          style="fill:#4277a6"/>
  <path
          d="m 48,352 c -9,0 -16,7 -16,16 0,9 7,16 16,16 9,0 16,-7 16,-16 0,-9 -7,-16 -16,-16 z"
          id="path839"
          style="fill:#aee6f2"/>
  <path
          d="m 144,352 c -9,0 -16,7 -16,16 0,9 7,16 16,16 9,0 16,-7 16,-16 0,-9 -7,-16 -16,-16 z"
          id="path837"
          style="fill:#aee6f2"/>
  <path
          d="m 240,352 c -9,0 -16,7 -16,16 0,9 7,16 16,16 9,0 16,-7 16,-16 0,-9 -7,-16 -16,-16 z"
          id="path835"
          style="fill:#aee6f2"/>
  <path
          d="m 336,352 c -9,0 -16,7 -16,16 0,9 7,16 16,16 9,0 16,-7 16,-16 0,-9 -7,-16 -16,-16 z"
          id="path833"
          style="fill:#aee6f2"/>
  <path
          d="m 112,416 c -9,0 -16,7 -16,16 0,9 7,16 16,16 9,0 16,-7 16,-16 0,-9 -7,-16 -16,-16 z"
          id="path831"
          style="fill:#aee6f2"/>
  <path
          d="m 208,416 c -9,0 -16,7 -16,16 0,9 7,16 16,16 9,0 16,-7 16,-16 0,-9 -7,-16 -16,-16 z"
          id="path829"
          style="fill:#aee6f2"/>
  <path
          d="m 304,416 c -9,0 -16,7 -16,16 0,9 7,16 16,16 9,0 16,-7 16,-16 0,-9 -7,-16 -16,-16 z"
          id="path827"
          style="fill:#aee6f2"/>
  <path
          d="m 400,416 c -9,0 -16,7 -16,16 0,9 7,16 16,16 9,0 16,-7 16,-16 0,-9 -7,-16 -16,-16 z"
          id="path825"
          style="fill:#aee6f2"/>
  <path
          d="m 48,480 c -9,0 -16,7 -16,16 0,9 7,16 16,16 9,0 16,-7 16,-16 0,-9 -7,-16 -16,-16 z"
          id="path823"
          style="fill:#aee6f2"/>
  <path
          d="m 144,480 c -9,0 -16,7 -16,16 0,9 7,16 16,16 9,0 16,-7 16,-16 0,-9 -7,-16 -16,-16 z"
          id="path821"
          style="fill:#aee6f2"/>
  <path
          d="m 240,480 c -9,0 -16,7 -16,16 0,9 7,16 16,16 9,0 16,-7 16,-16 0,-9 -7,-16 -16,-16 z"
          id="path819"
          style="fill:#aee6f2"/>
  <path
          d="m 336,480 c -9,0 -16,7 -16,16 0,9 7,16 16,16 9,0 16,-7 16,-16 0,-9 -7,-16 -16,-16 z"
          id="path2"
          style="fill:#aee6f2"/>
</svg>
