<svg
        xmlns="http://www.w3.org/2000/svg"
        width="40"
        height="40"
        viewBox="0 0 512 512">
  <path
          d="m 444,158 c 2,-10 4,-20 4,-30 C 448,57 391,0 320,0 270,0 228,29 206,70 c -9,-4 -19,-6 -30,-6 -43,0 -78,34 -80,77 -38,17 -64,48 -64,83 0,53 58,96 128,96 66.77902,0 123.52544,0 192,0 70,0 128,-43 128,-96 0,-26 -14,-49 -36,-66 z"
          style="fill:#4277a6"/>
  <path
          d="m 177.76959,318.99999 -48,64.33333 h 80 l -80,128.66667 192,-160.83333 h -96 l 32,-32.16667 z"
          style="fill:#364274"/>
</svg>
