<svg
        xmlns="http://www.w3.org/2000/svg"
        width="40"
        height="40"
        viewBox="0 0 512 512">
  <path
          d="m 444,158 c 2,-10 4,-20 4,-30 C 448,57 391,0 320,0 270,0 228,29 206,70 c -9,-4 -19,-6 -30,-6 -43,0 -78,34 -80,77 -38,17 -64,48 -64,83 0,53 58,96 128,96 h 192 c 70,0 128,-43 128,-96 0,-26 -14,-49 -36,-66 z"
          id="path823"
          style="fill:#4277a6"/>
  <path
          d="m 96,437 c 0,24 14,43 32,43 18,0 32,-19 32,-43 0,-23 -32,-85 -32,-85 0,0 -32,62 -32,85 z"
          id="path821"
          style="fill:#009fff"/>
  <path
          d="m 224,469 c 0,24 14,43 32,43 18,0 32,-19 32,-43 0,-23 -32,-85 -32,-85 0,0 -32,62 -32,85 z"
          id="path819"
          style="fill:#009fff"/>
  <path
          d="m 352,437 c 0,24 14,43 32,43 18,0 32,-19 32,-43 0,-23 -32,-85 -32,-85 0,0 -32,62 -32,85 z"
          id="path2"
          style="fill:#009fff"/>
</svg>
