<svg
        xmlns="http://www.w3.org/2000/svg"
        width="40"
        height="40"
        viewBox="0 0 512 512">
  <path
          d="m 444,158 c 2,-10 4,-20 4,-30 C 448,57 391,0 320,0 270,0 228,29 206,70 c -9,-4 -19,-6 -30,-6 -43,0 -78,34 -80,77 -38,17 -64,48 -64,83 0,53 58,96 128,96 h 192 c 70,0 128,-43 128,-96 0,-26 -14,-49 -36,-66 z"
          id="path823"
          style="fill:#4277a6"/>
  <path
          d="m 80,416 c -26,0 -48,22 -48,48 0,27 22,48 48,48 26,0 48,-21 48,-48 0,-26 -21,-48 -48,-48 z"
          id="path821"
          style="fill:#aee6f2"/>
  <path
          d="m 240,352 c -26,0 -48,22 -48,48 0,27 22,48 48,48 26,0 48,-21 48,-48 0,-26 -22,-48 -48,-48 z"
          id="path819"
          style="fill:#aee6f2"/>
  <path
          d="m 400,416 c -26,0 -48,22 -48,48 0,27 22,48 48,48 26,0 48,-21 48,-48 0,-26 -22,-48 -48,-48 z"
          id="path2"
          style="fill:#aee6f2"/>
</svg>
