<svg
        xmlns="http://www.w3.org/2000/svg"
        width="40"
        height="40"
        viewBox="0 0 512 512">
  <path
          style="fill:#e9bd15;"
          d="m109 109c6 6 16 6 23 0c6-6 6-16 0-23l-23-22c-6-6-16-6-23 0c-6 6-6 16 0 22z m-45 131c0-9-7-16-16-16l-32 0c-9 0-16 7-16 16c0 9 7 16 16 16l32 0c9 0 16-7 16-16z m22 141l-22 22c-6 6-6 17 0 23c6 6 16 6 22 0l23-23c6-6 6-16 0-22c-6-7-16-7-23 0z m154 67c-9 0-16 7-16 16l0 32c0 9 7 16 16 16c9 0 16-7 16-16l0-32c0-9-7-16-16-16z m32-384c9 0 16-7 16-16l0-32c0-9-7-16-16-16c-9 0-16 7-16 16l0 32c0 9 7 16 16 16z m131 339c-6-6-16-6-22 0c-7 6-7 16 0 23l22 22c6 7 17 7 23 0c6-6 6-16 0-22z m93-147l-32 0c-9 0-16 7-16 16c0 9 7 16 16 16l32 0c9 0 16-7 16-16c0-9-7-16-16-16z m-70-125l22-22c6-6 7-16 0-23c-6-6-16-6-22 0l-23 23c-6 6-6 16 0 23c6 6 16 6 23-1z m-170-35c-88 0-160 72-160 160c0 88 72 160 160 160c88 0 160-72 160-160c0-88-72-160-160-160z"/>
</svg>