<svg xmlns="http://www.w3.org/2000/svg" width="22" height="20" viewBox="0 0 22 20">
  <metadata><?xpacket begin="﻿" id="W5M0MpCehiHzreSzNTczkc9d"?>
<x:xmpmeta xmlns:x="adobe:ns:meta/" x:xmptk="Adobe XMP Core 5.6-c138 79.159824, 2016/09/14-01:09:01        ">
   <rdf:RDF xmlns:rdf="http://www.w3.org/1999/02/22-rdf-syntax-ns#">
      <rdf:Description rdf:about=""/>
   </rdf:RDF>
</x:xmpmeta>
                                                                                                    
                                                                                                    
                                                                                                    
                                                                                                    
                                                                                                    
                                                                                                    
                                                                                                    
                                                                                                    
                                                                                                    
                                                                                                    
                                                                                                    
                                                                                                    
                                                                                                    
                                                                                                    
                                                                                                    
                                                                                                    
                                                                                                    
                                                                                                    
                                                                                                    
                                                                                                    
                           
<?xpacket end="w"?></metadata>
<defs>
    <style>
      .cls-1 {
        fill: #181f1c;
        fill-rule: evenodd;
      }
    </style>
  </defs>
  <path id="Ellipse_750_copy_6" data-name="Ellipse 750 copy 6" class="cls-1" d="M560,4032a2,2,0,0,1-4,0v-4a2,2,0,0,1,4,0v4Zm6,0a2,2,0,0,1-4,0v-8a2,2,0,0,1,4,0v8Zm6,0a2,2,0,0,1-4,0v-12a2,2,0,0,1,4,0v12Zm6,0a2,2,0,0,1-4,0v-16a2,2,0,0,1,4,0v16Zm-3-16a1,1,0,0,1,2,0v16a1,1,0,0,1-2,0v-16Zm-6,4a1,1,0,0,1,2,0v12a1,1,0,0,1-2,0v-12Zm-6,4a1,1,0,0,1,2,0v8a1,1,0,0,1-2,0v-8Z" transform="translate(-556 -4014)"/>
</svg>
