<svg width="512" height="200" viewBox="0 0 500 200" xmlns="http://www.w3.org/2000/svg">
    <g id="dp_dp001">
        <path id="dp_path002" fill="#395f47" fill-rule="evenodd" stroke="none" stroke-width="0"
              d="M 470.483,40.908 C 469.817,40.536 468.749,40.3493 467.283,40.3493 L 465.024,40.3493 L 465.024,45.7827 L 467.413,45.7827 C 468.532,45.7827 469.372,45.672 469.932,45.448 C 470.965,45.0387 471.48,44.2573 471.48,43.104 C 471.48,42.012 471.147,41.28 470.483,40.908 Z M 467.628,38.5453 C 469.489,38.5453 470.853,38.7253 471.721,39.0853 C 473.273,39.7307 474.048,40.9973 474.048,42.884 C 474.048,44.2253 473.561,45.2133 472.585,45.8467 C 472.065,46.1813 471.344,46.424 470.417,46.572 C 471.589,46.7587 472.448,47.248 472.992,48.0413 C 473.535,48.8347 473.805,49.608 473.805,50.364 L 473.805,51.46 C 473.805,51.808 473.82,52.1787 473.843,52.576 C 473.868,52.972 473.912,53.232 473.973,53.3573 L 474.067,53.5427 L 471.592,53.5427 C 471.58,53.4933 471.568,53.444 471.553,53.3933 C 471.543,53.344 471.531,53.2893 471.517,53.2267 L 471.461,52.7453 L 471.461,51.5573 C 471.461,49.8267 470.991,48.6827 470.048,48.1267 C 469.489,47.8053 468.511,47.644 467.107,47.644 L 465.024,47.644 L 465.024,53.5427 L 462.381,53.5427 L 462.381,38.5453 L 467.628,38.5453 Z M 459.589,37.7827 C 457.308,40.0773 456.167,42.8493 456.167,46.1 C 456.167,49.3747 457.301,52.1653 459.572,54.4733 C 461.855,56.78 464.627,57.9333 467.889,57.9333 C 471.152,57.9333 473.924,56.78 476.207,54.4733 C 478.489,52.1653 479.629,49.3747 479.629,46.1 C 479.629,42.8493 478.489,40.0773 476.207,37.7827 C 473.912,35.4747 471.139,34.3213 467.889,34.3213 C 464.651,34.3213 461.885,35.4747 459.589,37.7827 Z M 477.565,55.7747 C 474.899,58.4547 471.673,59.7947 467.889,59.7947 C 464.105,59.7947 460.888,58.4547 458.232,55.7747 C 455.589,53.108 454.269,49.8773 454.269,46.0813 C 454.269,42.3227 455.603,39.1093 458.269,36.4427 C 460.925,33.788 464.129,32.46 467.889,32.46 C 471.673,32.46 474.899,33.788 477.565,36.4427 C 480.232,39.0973 481.565,42.3107 481.565,46.0813 C 481.565,49.864 480.232,53.096 477.565,55.7747 Z "/>
        <path id="dp_path003" fill="#395f47" fill-rule="evenodd" stroke="none" stroke-width="0"
              d="M 103.445,24.608 C 105.339,24.608 109.131,29.18 108.793,33.2533 C 108.431,37.556 105.44,41.36 102.988,41.36 C 101.852,41.36 97.4613,41.5667 73.096,41.5667 C 71.0173,58.7587 60.056,150.424 59.68,152.324 C 59.2973,155.713 52.688,159.544 41.9173,159.761 C 33.7907,159.971 24.16,156.785 24.7213,153.179 C 25.0973,150.424 36.436,59.824 38.896,41.5667 L 6.64667,41.5667 C 4.384,41.5667 0,38.24 0,33.308 C 0,28.824 3.47333,24.608 5.72933,24.608 L 103.445,24.608 Z "/>
        <path id="dp_path004" fill="#395f47" fill-rule="evenodd" stroke="none" stroke-width="0"
              d="M 285.56,51.5067 L 231.871,51.5067 C 199.411,51.5067 174.797,59.364 169.495,93.9467 C 164.185,128.321 180.736,141.897 209.595,141.897 L 235.899,141.897 L 238.632,127.04 L 218.932,127.04 C 208.109,127.04 200.896,118.78 204.715,94.364 C 208.531,70.184 219.989,68.4813 224.663,68.4813 L 261.793,68.4813 C 256.707,103.711 253.092,127.04 253.092,127.04 L 253.061,127.04 L 250.463,141.897 L 250.544,141.897 C 247.567,159.515 239.512,164.809 232.723,164.809 L 178.195,164.809 C 178.195,164.809 177.352,164.809 176.288,165.455 C 174.172,167.997 173.093,171.387 173.093,174.784 C 173.093,176.48 173.311,178.18 173.736,179.665 C 213.203,179.869 240.991,179.869 240.991,179.869 C 268.792,179.869 282.584,161.201 285.56,141.897 C 287.039,132.776 296.164,71.6587 297.012,66.3667 C 298.496,57.2373 295.101,51.5067 285.56,51.5067 Z "/>
        <path id="dp_path005" fill="#395f47" fill-rule="evenodd" stroke="none" stroke-width="0"
              d="M 139.869,155.805 C 139.869,155.805 139.667,156.753 139.257,156.995 C 134.555,159.117 129.227,160.309 122.884,160.309 C 116.74,160.309 111.209,159.117 106.701,156.995 C 106.499,156.995 106.091,156.512 106.091,156.047 C 118.991,56.1493 118.991,55.684 118.991,55.684 C 118.991,55.684 119.195,54.968 119.609,54.7347 C 124.312,52.3573 129.845,51.168 135.981,51.168 C 142.331,51.168 147.659,52.3573 152.361,54.7347 C 152.776,54.968 152.776,55.684 152.776,55.684 C 152.776,55.9187 141.107,145.835 139.869,155.805 Z "/>
        <path id="dp_path006" fill="#395f47" fill-rule="evenodd" stroke="none" stroke-width="0"
              d="M 448.693,107.452 C 441.203,158.048 399.745,159.22 372.34,159.22 C 320.096,159.22 302.773,148.448 309.096,99.9667 C 314.481,58.504 339.777,51.7173 385.928,51.7173 C 426.909,51.7173 455.96,56.86 448.693,107.452 Z M 347.981,101.368 C 342.353,136.743 352.421,141.656 372.34,141.656 C 393.888,141.656 405.131,141.184 411.453,103.94 C 416.144,76.0667 403.013,69.2773 383.111,69.2773 C 364.136,69.2773 352.421,73.4947 347.981,101.368 Z "/>
        <path id="dp_path007" fill="#50bd37" fill-rule="evenodd" stroke="none" stroke-width="0"
              d="M 126.789,31.548 C 126.789,31.548 116.981,-2.832 174.072,1.19333 C 174.072,1.19333 162.637,5.55867 157.889,29.7173 C 157.889,29.7173 149.98,52.6253 129.421,38.9067 C 129.421,38.9067 127.561,34.7813 126.789,31.548 Z "/>
        <path id="dp_path008" fill="#fefefe" fill-rule="evenodd" stroke="none" stroke-width="0"
              d="M 172.344,1.06267 C 172.344,1.06267 152.72,8.35867 143.465,15.6507 C 143.465,15.6507 142.42,8.41733 149.903,2.21733 L 147.836,2.68133 C 147.836,2.68133 141.256,7.52667 142.069,16.6173 C 142.069,16.6173 127.64,27.9027 130.132,39.3147 L 131.523,40.1493 C 131.523,40.1493 128.173,31.136 139.517,20.648 C 139.517,20.648 147.608,29.624 158.54,26.6413 L 158.904,25.232 C 158.904,25.232 148.84,28.4667 140.544,19.6653 C 140.544,19.6653 149.937,11.196 172.508,2.16267 L 174.219,1.17733 L 172.344,1.06267 Z "/>
    </g>
</svg>