<svg xmlns="http://www.w3.org/2000/svg" width="8" height="14" viewBox="0 0 8 14">
<defs>
    <style>
      .cls-1 {
        fill: #181f1c;
        fill-rule: evenodd;
      }
    </style>
  </defs>
  <path class="cls-1" d="M1285.2,1735.2a0.72,0.72,0,0,0,0,.97l5.54,5.37a0.539,0.539,0,0,1,.29.46,0.86,0.86,0,0,1-.32.49l-5.51,5.35a0.778,0.778,0,0,0,0,.98,0.837,0.837,0,0,0,1.01,0l6.54-6.36a0.534,0.534,0,0,0,.24-0.46,0.47,0.47,0,0,0-.26-0.46l-6.52-6.34A0.784,0.784,0,0,0,1285.2,1735.2Z" transform="translate(-1285 -1735)"/>
</svg>
