<svg xmlns="http://www.w3.org/2000/svg" width="20" height="20" viewBox="0 0 20 20">
    <path style="fill: #c6878f; fill-rule: evenodd;"
          d="M1850,488a10,10,0,1,1-10,10A10,10,0,0,1,1850,488Zm0,1a9,9,0,1,1-9,9A9,9,0,0,1,1850,489Zm0,1a8,8,0,1,1-8,8A8,8,0,0,1,1850,490Zm0.5,3.5a0.5,0.5,0,0,1-1,0v-1a0.5,0.5,0,0,1,1,0v1Zm2.96,0.257a0.5,0.5,0,0,1,.7.707c-0.19.2-3.51,3.512-3.7,3.708a0.5,0.5,0,0,1-.71,0,0.511,0.511,0,0,1,0-.708C1849.95,497.269,1853.26,493.953,1853.46,493.757Zm-8.96,4.743a0.5,0.5,0,0,1,0-1h1a0.5,0.5,0,0,1,0,1h-1Zm1.26-4.036a0.5,0.5,0,0,1,.7-0.707c0.2,0.2.52,0.512,0.71,0.707a0.493,0.493,0,0,1,0,.708,0.5,0.5,0,0,1-.71,0C1846.27,494.976,1845.95,494.66,1845.76,494.464Zm8.74,3.036a0.5,0.5,0,0,0,0,1h1a0.5,0.5,0,0,0,0-1h-1Z"
          transform="translate(-1840 -488)"/>
</svg>
