<?xml version="1.0" encoding="UTF-8"?>
<svg width="8px" height="14px" viewBox="0 0 8 14" version="1.1" xmlns="http://www.w3.org/2000/svg" xmlns:xlink="http://www.w3.org/1999/xlink">
    <g id="small_arrow_right" stroke="none" stroke-width="1" fill="none" fill-rule="evenodd">
        <path d="M0.0912680662,12.5104356 C0.0314114521,12.573365 -0.00145036399,12.6584282 4.91557882e-05,12.7465568 C0.00154867557,12.8346855 0.0372840999,12.9185078 0.0992447225,12.9792336 L0.992630223,13.9003807 C1.12313002,14.029972 1.32856879,14.0335623 1.46325294,13.9086052 L7.90839119,7.22206478 C8.03358343,7.08792089 8.03001727,6.87465657 7.90041454,6.74504222 L1.47920625,0.0913999182 C1.35062078,-0.0335936027 1.14879094,-0.0299426973 1.02453685,0.0996244451 L0.131151347,1.00432241 C0.070255049,1.06615683 0.0359649863,1.15059705 0.0359649863,1.23872143 C0.0359649863,1.32684581 0.070255049,1.41128602 0.131151347,1.47312044 C0.131151347,1.47312044 5.39574448,6.76149127 5.44360441,6.81906296 C5.49103873,6.85968926 5.51847931,6.91997269 5.51847931,6.9835535 C5.51847931,7.04713431 5.49103873,7.10741774 5.44360441,7.14804404 C5.37181451,7.21384025 0.0912680662,12.5104356 0.0912680662,12.5104356 Z" fill="#181F1C"></path>
    </g>
</svg>