<svg xmlns="http://www.w3.org/2000/svg" width="21" height="18" viewBox="0 0 21 18">
    <path style="fill: #5b85aa; fill-rule: evenodd;"
          d="M1868,450.941a7.244,7.244,0,0,0-7-5.941,7.105,7.105,0,0,0-6.2,3.746,1.536,1.536,0,0,1-.18.054,5.155,5.155,0,0,0,.79,10.2h12.27a4.015,4.015,0,0,0,.44-7.974A0.581,0.581,0,0,1,1868,450.941Zm-4.67,9.8c-0.23.254-1.69,1.816-1.9,2.031a0.509,0.509,0,0,1-.85,0c-0.17-.184-1.71-1.808-1.93-2.057-0.3-.285-0.12-0.689.48-0.71h3.75C1863.44,460,1863.7,460.357,1863.33,460.736Zm0-4.472c-0.23-.254-1.69-1.816-1.9-2.031a0.509,0.509,0,0,0-.85,0c-0.17.184-1.71,1.809-1.93,2.057-0.3.285-.12,0.689,0.48,0.71h3.75C1863.44,457,1863.7,456.643,1863.33,456.264Z"
          transform="translate(-1850.5 -445)"/>
</svg>
