<svg xmlns="http://www.w3.org/2000/svg" width="40" height="40" viewBox="0 0 40 40">
  <metadata><?xpacket begin="﻿" id="W5M0MpCehiHzreSzNTczkc9d"?>
<x:xmpmeta xmlns:x="adobe:ns:meta/" x:xmptk="Adobe XMP Core 5.6-c138 79.159824, 2016/09/14-01:09:01        ">
   <rdf:RDF xmlns:rdf="http://www.w3.org/1999/02/22-rdf-syntax-ns#">
      <rdf:Description rdf:about=""/>
   </rdf:RDF>
</x:xmpmeta>
                                                                                                    
                                                                                                    
                                                                                                    
                                                                                                    
                                                                                                    
                                                                                                    
                                                                                                    
                                                                                                    
                                                                                                    
                                                                                                    
                                                                                                    
                                                                                                    
                                                                                                    
                                                                                                    
                                                                                                    
                                                                                                    
                                                                                                    
                                                                                                    
                                                                                                    
                                                                                                    
                           
<?xpacket end="w"?></metadata>
<defs>
    <style>
      .cls-1 {
        fill: #489f3e;
      }

      .cls-2 {
        fill: #fff;
        fill-rule: evenodd;
      }
    </style>
  </defs>
  <circle id="Ellipse_1_copy" data-name="Ellipse 1 copy" class="cls-1" cx="20" cy="20" r="20"/>
  <path class="cls-2" d="M3962.98,1799H3967c0.98,0,1.02.04,1.85,0.99,0.55,0.65,1.24,1.47,1.69,2,0.43,0.5.44,0.53,1.46,0.53,0.99,0,2.45-.01,3.01-0.02a1.112,1.112,0,0,1,.99,1.04v12.48a1.176,1.176,0,0,1-1,.98h-19.97a1.149,1.149,0,0,1-1.03-.96v-12.53a1.034,1.034,0,0,1,1-.98c0.56,0,2.01-.02,3-0.02a1.319,1.319,0,0,0,1.45-.55c0.45-.52,1.15-1.33,1.7-1.97C3961.95,1799.02,3961.98,1799,3962.98,1799Zm3.02,1.54c-0.62-.01-1.42-0.01-2.03-0.01a1.3,1.3,0,0,0-1.35.48c-0.45.51-1.18,1.35-1.76,2-0.86.96-.96,1-1.9,1-0.74,0-1.73,0-2.46.01a0.807,0.807,0,0,0-1,.96v9.52a0.829,0.829,0,0,0,.97,1H3961a6,6,0,1,1,8,0h4.45a0.9,0.9,0,0,0,1.05-1.08v-9.45c0-.75-0.33-0.95-1.06-0.95s-1.7-.01-2.42-0.01c-0.95.02-1.04-.03-1.89-1-0.56-.65-1.27-1.46-1.72-1.97A1.379,1.379,0,0,0,3966,1800.54Zm-1,5.98a4.49,4.49,0,1,1-4.5,4.49A4.492,4.492,0,0,1,3965,1806.52Z" transform="translate(-3945 -1789)"/>
</svg>
