<svg xmlns="http://www.w3.org/2000/svg" width="17" height="12" viewBox="0 0 17 12">
  <defs>
    <style>
      .cls-1 {
      fill: #489f3e;
      fill-rule: evenodd;
      }
    </style>
  </defs>
  <path class="cls-1" d="M1295.15,1629.14a0.544,0.544,0,0,1,.75.01l0.93,0.9a0.5,0.5,0,0,1,.01.73l-10.57,10.07a0.554,0.554,0,0,1-.75-0.01l-5.38-5.03a0.5,0.5,0,0,1,.02-0.72l0.91-.89a0.532,0.532,0,0,1,.74-0.01s3.74,3.74,3.83,3.81a0.331,0.331,0,0,0,.51,0C1286.26,1637.89,1295.15,1629.14,1295.15,1629.14Z" transform="translate(-1280 -1629)"/>
</svg>
