<svg xmlns="http://www.w3.org/2000/svg" width="40" height="40" viewBox="0 0 40 40">
<defs>
    <style>
      .cls-1 {
        fill: #fdfffc;
        fill-opacity: 0;
      }

      .cls-2 {
        fill: #979b8d;
        fill-rule: evenodd;
      }
    </style>
  </defs>
  <circle id="Ellipse_1_copy_12" data-name="Ellipse 1 copy 12" class="cls-1" cx="20" cy="20" r="20"/>
  <path id="Shape_4_copy_5" data-name="Shape 4 copy 5" class="cls-2" d="M1796.98,356H1801c0.98,0,1.02.035,1.85,1,0.55,0.647,1.24,1.465,1.69,1.993,0.43,0.5.44,0.532,1.46,0.532,0.99,0,2.45-.013,3.01-0.02a1.113,1.113,0,0,1,.99,1.039v12.478a1.179,1.179,0,0,1-1,.983h-19.97a1.154,1.154,0,0,1-1.03-.957V360.514a1.037,1.037,0,0,1,1-.989c0.56,0,2.01-.01,3-0.018a1.325,1.325,0,0,0,1.45-.547c0.45-.525,1.15-1.335,1.7-1.975C1795.95,356.022,1795.98,356,1796.98,356Zm3.02,1.537-2.03-.007a1.306,1.306,0,0,0-1.35.476c-0.45.515-1.18,1.349-1.76,2.006-0.86.959-.96,0.993-1.9,0.993l-2.46.013a0.808,0.808,0,0,0-1,.96V371.5a0.832,0.832,0,0,0,.97,1.006H1795a6,6,0,1,1,8,0h4.45a0.9,0.9,0,0,0,1.05-1.078v-9.456c0-.75-0.33-0.952-1.06-0.952l-2.42-.012c-0.95.024-1.04-.024-1.89-1-0.56-.644-1.27-1.456-1.72-1.968A1.375,1.375,0,0,0,1800,357.537Zm-1,5.994a4.485,4.485,0,1,1-4.5,4.485A4.49,4.49,0,0,1,1799,363.531Z" transform="translate(-1779 -345)"/>
</svg>
