<svg xmlns="http://www.w3.org/2000/svg" width="22" height="16" viewBox="0 0 22 16">
    <path style="fill: #9684a1; fill-rule: evenodd;"
          d="M1376,3473a1,1,0,0,0,1,1h8a1,1,0,0,0,1-1v-5a1,1,0,0,0-1-1h-8a1,1,0,0,0-1,1v2h-1v-8h1v2a1,1,0,0,0,1,1h8a1,1,0,0,0,1-1v-5a1,1,0,0,0-1-1h-8a1,1,0,0,0-1,1v2h-2v4.5h-1V3460a2.006,2.006,0,0,0-2-2h-5a2.006,2.006,0,0,0-2,2v12a2.006,2.006,0,0,0,2,2h5a2.006,2.006,0,0,0,2-2v-5.5h1v4.5h2v2Zm-5.5-3.05-0.49-.45c-0.05.08-.1,0.17-0.16,0.25a1.371,1.371,0,0,1-.17.23,0.827,0.827,0,0,1-.21.17,0.43,0.43,0,0,1-.25.07,1.092,1.092,0,0,1-.43-0.11c-0.15-.08-0.31-0.16-0.48-0.25s-0.33-.17-0.5-0.25a1.33,1.33,0,0,0-.5-0.11,1.193,1.193,0,0,0-.47.09,1.259,1.259,0,0,0-.36.24,1.484,1.484,0,0,0-.28.33,2.808,2.808,0,0,0-.2.38l0.49,0.46a1.96,1.96,0,0,1,.3-0.49,0.588,0.588,0,0,1,.48-0.23,1.064,1.064,0,0,1,.45.11c0.15,0.08.31,0.16,0.47,0.25s0.32,0.17.49,0.25a1.4,1.4,0,0,0,.53.11,1.017,1.017,0,0,0,.44-0.09,1.314,1.314,0,0,0,.34-0.24,3.039,3.039,0,0,0,.28-0.33,3.642,3.642,0,0,0,.23-0.39h0ZM1365,3460v4.5l7,3V3460a1,1,0,0,0-1-1h-5A1,1,0,0,0,1365,3460Zm1.5,1h4v1h-4v-1Z"
          transform="translate(-1364 -3458)"/>
</svg>
