<svg xmlns="http://www.w3.org/2000/svg" width="46" height="43" viewBox="0 0 46 43">
    <g>
        <path fill="#50bd37"
              d="M 45.959374,1.4620685 C 23.685853,10.433133 14.394921,18.799959 14.394921,18.799959 22.686727,27.596909 32.742175,24.36963 32.752342,24.366365 36.511023,9.7005785 42.788788,3.6710715 45.959374,1.4620685 Z"></path>
        <path fill="#50bd37"
              d="M 13.367577,19.782381 C 2.6223803,29.716763 5.0352813,38.407394 5.3226553,39.307771 24.356807,50.220167 31.740624,28.852693 31.740624,28.852693 31.949419,27.790307 32.173522,26.779291 32.406639,25.792146 21.481675,28.763412 13.367577,19.782381 13.367577,19.782381 Z"></path>
        <path fill="#50bd37"
              d="M 21.662499,1.8019125 C -5.7171827,8.3708745 0.63906134,30.682771 0.63906134,30.682771 c 0.77199996,3.2333 2.63281296,7.359375 2.63281296,7.359375 0.237494,0.158475 0.465093,0.286756 0.699218,0.435547 C 1.5553223,27.08989 15.920311,15.753084 15.920311,15.753084 15.121339,6.8193125 21.44291,1.9675615 21.662499,1.8019125 Z"></path>
        <path fill="#50bd37"
              d="M 37.982811,0.00503745 C 32.481909,0.06012945 27.768674,0.54409845 23.723046,1.3487875 16.276269,7.5427455 17.314842,14.786287 17.314842,14.786287 26.532082,7.5240085 45.982035,0.27709845 46.141014,0.21792845 c -2.89017,-0.167118 -5.613395,-0.238377 -8.158203,-0.212891 z"></path>
    </g>
</svg>
