<svg xmlns="http://www.w3.org/2000/svg" width="20" height="20" viewBox="0 0 20 20">
<defs>
    <style>
      .cls-1 {
        fill: #e8ae68;
        fill-rule: evenodd;
      }
    </style>
  </defs>
  <path class="cls-1" d="M1852,530a10,10,0,1,1-10,10A10,10,0,0,1,1852,530Zm0,1a9,9,0,1,1-9,9A9,9,0,0,1,1852,531Zm2,14.5a0.5,0.5,0,0,0,0-1h-4a1.5,1.5,0,0,1,0-3h4a0.5,0.5,0,0,0,0-1h-4.05a1.5,1.5,0,0,1,.05-3h4a0.5,0.5,0,0,0,0-1h-4a1.5,1.5,0,0,1,0-3l6.66,0a8,8,0,0,0-10.46,12.009Zm-6.67,1a8,8,0,0,0,10.48-12l-7.81,0a0.5,0.5,0,0,0,0,1h4a1.5,1.5,0,0,1,0,3h-4a0.5,0.5,0,0,0,0,1h4a1.5,1.5,0,0,1,0,3h-4a0.5,0.5,0,0,0,0,1h4a1.5,1.5,0,0,1,0,3Z" transform="translate(-1842 -530)"/>
</svg>
