<svg xmlns="http://www.w3.org/2000/svg" width="7" height="10" viewBox="0 0 7 10">
  <metadata><?xpacket begin="﻿" id="W5M0MpCehiHzreSzNTczkc9d"?>
<x:xmpmeta xmlns:x="adobe:ns:meta/" x:xmptk="Adobe XMP Core 5.6-c138 79.159824, 2016/09/14-01:09:01        ">
   <rdf:RDF xmlns:rdf="http://www.w3.org/1999/02/22-rdf-syntax-ns#">
      <rdf:Description rdf:about=""/>
   </rdf:RDF>
</x:xmpmeta>
                                                                                                    
                                                                                                    
                                                                                                    
                                                                                                    
                                                                                                    
                                                                                                    
                                                                                                    
                                                                                                    
                                                                                                    
                                                                                                    
                                                                                                    
                                                                                                    
                                                                                                    
                                                                                                    
                                                                                                    
                                                                                                    
                                                                                                    
                                                                                                    
                                                                                                    
                                                                                                    
                           
<?xpacket end="w"?></metadata>
<defs>
    <style>
      .cls-1 {
        fill: #fdfffc;
        fill-rule: evenodd;
      }
    </style>
  </defs>
  <path id="PIN_ICON_" data-name="PIN ICON !!!!!!!!!!!" class="cls-1" d="M1800.5,561.488c0,1.882-.96,3.118-1.96,4.62A12.735,12.735,0,0,1,1797,568a12.756,12.756,0,0,1-1.53-1.865c-0.99-1.5-1.97-2.765-1.97-4.647a3.319,3.319,0,0,1,1.03-2.46,3.481,3.481,0,0,1,4.94,0,3.319,3.319,0,0,1,1.03,2.46h0Zm-2.18.148a1.324,1.324,0,0,0-.39-0.976,1.3,1.3,0,0,0-1.86,0,1.4,1.4,0,0,0,0,1.939,1.275,1.275,0,0,0,1.86,0,1.334,1.334,0,0,0,.39-0.963h0Z" transform="translate(-1793.5 -558)"/>
</svg>
