<svg xmlns="http://www.w3.org/2000/svg" width="22" height="18" viewBox="0 0 22 18">
  <metadata><?xpacket begin="﻿" id="W5M0MpCehiHzreSzNTczkc9d"?>
<x:xmpmeta xmlns:x="adobe:ns:meta/" x:xmptk="Adobe XMP Core 5.6-c138 79.159824, 2016/09/14-01:09:01        ">
   <rdf:RDF xmlns:rdf="http://www.w3.org/1999/02/22-rdf-syntax-ns#">
      <rdf:Description rdf:about=""/>
   </rdf:RDF>
</x:xmpmeta>
                                                                                                    
                                                                                                    
                                                                                                    
                                                                                                    
                                                                                                    
                                                                                                    
                                                                                                    
                                                                                                    
                                                                                                    
                                                                                                    
                                                                                                    
                                                                                                    
                                                                                                    
                                                                                                    
                                                                                                    
                                                                                                    
                                                                                                    
                                                                                                    
                                                                                                    
                                                                                                    
                           
<?xpacket end="w"?></metadata>
<defs>
    <style>
      .cls-1 {
        fill: #181f1c;
        fill-rule: evenodd;
      }
    </style>
  </defs>
  <path id="Shape_4_copy_5" data-name="Shape 4 copy 5" class="cls-1" d="M837.977,667H842c0.982,0,1.024.035,1.848,1l1.7,1.993c0.428,0.5.435,0.532,1.456,0.532,0.993,0,2.447-.013,3.008-0.02a1.116,1.116,0,0,1,.993,1.039v12.478a1.179,1.179,0,0,1-1,.983H830.027a1.151,1.151,0,0,1-1.027-.957V671.514a1.04,1.04,0,0,1,1-.989c0.56,0,2.012-.01,3-0.018a1.326,1.326,0,0,0,1.449-.547l1.7-1.975C836.95,667.022,836.98,667,837.977,667Zm3.028,1.537-2.039-.007a1.312,1.312,0,0,0-1.349.476l-1.754,2.006c-0.862.959-.959,0.993-1.9,0.993l-2.467.013a0.808,0.808,0,0,0-1,.96V682.5a0.832,0.832,0,0,0,.969,1.006H836a6,6,0,1,1,8,0h4.455a0.893,0.893,0,0,0,1.045-1.078v-9.456c0-.75-0.331-0.952-1.065-0.952l-2.419-.012c-0.944.024-1.037-.024-1.885-1l-1.724-1.968A1.361,1.361,0,0,0,841.005,668.537Zm-1,5.994a4.485,4.485,0,1,1-4.5,4.485A4.493,4.493,0,0,1,840,674.531Z" transform="translate(-829 -667)"/>
</svg>
