<svg xmlns="http://www.w3.org/2000/svg" width="26" height="34" viewBox="0 0 26 34">
  <defs>
    <style>
      .cls-1 {
        fill: #489f3e;
        fill-rule: evenodd;
      }
    </style>
  </defs>
  <path id="_4_copy_6" data-name="4 copy 6" class="cls-1" d="M345,715.862c0,6.4-3.582,10.6-7.261,15.709A44.707,44.707,0,0,1,332,738.007a43.8,43.8,0,0,1-5.67-6.343c-3.692-5.117-7.328-9.4-7.328-15.8a10.886,10.886,0,0,1,3.819-8.367,13.8,13.8,0,0,1,18.359,0A10.892,10.892,0,0,1,345,715.862h0Zm-7.989.143a4.8,4.8,0,0,0-1.45-3.566,5.154,5.154,0,0,0-7.12,0,5.023,5.023,0,1,0,8.57,3.566h0Z" transform="translate(-319 -704)"/>
</svg>
